<svg xmlns="http://www.w3.org/2000/svg" width="712.5" height="86.391" viewBox="0 0 712.5 86.391">
  <g id="Logo" transform="translate(-119 -118.182)">
    <g id="Grupo_130" data-name="Grupo 130" transform="translate(613 -11)">
      <path id="Caminho_10237" data-name="Caminho 10237" d="M82.881,160.047s57.23,15.52,109.316-29.509c0,0,15.72-6.188,14.466,7.878s-15.38,34.728-48.391,46.756-51.879,24.549-62.391,23.458C64.017,205.324,65,160.007,82.881,160.047Z" fill="#e78e26"/>
      <g id="Grupo_9" data-name="Grupo 9">
        <path id="Caminho_10238" data-name="Caminho 10238" d="M216.613,138.579a15.148,15.148,0,0,0-1.319-3.208,6.818,6.818,0,0,0-6.51-3.879h-.015c-4.878.127-10.355,4.19-12.316,5.781l-.038.031-.187.153-.058.048-.227.19-.062.053-.064.056-.058.05-.037.032-.023.02S159.31,178.549,87.242,167.634l-.03-.008-.041-.011-.062-.016-.08-.02-.07-.017L86.7,167.5l-.079-.018-.2-.043-.094-.021c-.233-.05-.505-.1-.812-.16l-.163-.029c-.088-.016-.177-.031-.27-.046-.073-.013-.149-.024-.225-.036-.092-.015-.184-.03-.281-.044-.151-.023-.307-.044-.467-.066l-.213-.026c-.131-.017-.264-.032-.4-.047l-.19-.021c-.377-.039-.769-.073-1.176-.1l-.014,0c-4.966-.291-11.9.74-12.945,8.49a14.928,14.928,0,0,0-.137,1.619c-.3,11.462,15,14.7,15,14.7s71.089,19.644,128.1-37.881C212.14,153.778,219.025,147.135,216.613,138.579Z" fill="#c15632"/>
        <path id="Caminho_10239" data-name="Caminho 10239" d="M211.641,148.525c-57.418,57.116-128.365,36.966-128.365,36.966s-11.006-2.416-14.1-10.153a14.928,14.928,0,0,0-.137,1.619c-.3,11.462,15,14.7,15,14.7s71.089,19.644,128.1-37.881c0,0,6.885-6.643,4.473-15.2A18.176,18.176,0,0,1,211.641,148.525Z" fill="#993d18"/>
        <path id="Caminho_10240" data-name="Caminho 10240" d="M83.276,185.491s70.947,20.15,128.365-36.966a18.176,18.176,0,0,0,4.972-9.946,15.148,15.148,0,0,0-1.319-3.208c-5.525-10.045-19.6,2.536-19.6,2.536S159.31,178.549,87.242,167.634c0,0-16.414-4.563-18.067,7.7C72.27,183.075,83.276,185.491,83.276,185.491Z" fill="#b45127"/>
        <path id="Caminho_10241" data-name="Caminho 10241" d="M75.441,175.687c.81,8.026,28,11.723,65.963,4.67s60.829-25.579,64.709-37.2c1.662-4.976,2.955-8.541,3.25-11.662-6.192-.264-13.664,6.41-13.664,6.41S159.31,178.549,87.242,167.634a27.374,27.374,0,0,0-5.108-.788A7.625,7.625,0,0,0,75.441,175.687Z" fill="#c15632"/>
      </g>
      <path id="Caminho_10242" data-name="Caminho 10242" d="M97.344,171.6S136.8,180.17,179.277,150.9c0,0,8.471-6.436,12.232-4.876s-.815,8.4-8.33,13.593-44.415,22.039-67.824,20.154c-23.83-1.92-28.431-7.03-25.28-8.215C94.942,169.721,97.344,171.6,97.344,171.6Z" fill="#ca6839"/>
      <path id="Caminho_10243" data-name="Caminho 10243" d="M89.845,179.014s59.449,16.121,113.555-30.653c0,0,16.329-6.428,15.027,8.183s-16.554,34.591-50.268,48.569c-46.7,19.361-74.916,7.563-83.086-1.291C77.627,195.753,71.269,178.972,89.845,179.014Z" fill="#e78e26"/>
      <path id="Caminho_10244" data-name="Caminho 10244" d="M202.771,148.9c-51.01,43.607-106.54,31.665-112.416,30.241a4.3,4.3,0,0,0-1.09-.124,21.677,21.677,0,0,0-4.124.43c-5.2,1.1-4.281,8.861,1.032,8.747l.12,0a4.314,4.314,0,0,1,1.091.124c5.879,1.425,61.407,13.364,112.415-30.241a4.379,4.379,0,0,1,1.5-.845c3.365-1.086,15.276-4.073,14.156,8.487-.047.532-.119,1.072-.2,1.618a31.489,31.489,0,0,0,3.175-10.793c1.12-12.561-10.791-9.573-14.156-8.487A4.37,4.37,0,0,0,202.771,148.9Z" fill="#f5aa51"/>
      <path id="Caminho_10245" data-name="Caminho 10245" d="M90.266,183.186c-9.943-2.579-10.881,9.779-7.265,15.256.055.083.111.166.168.25,5.725,8.4,33.749,20.411,75.379,3.893,20.165-8,33-16.9,39.8-25.321,6.344-7.848-3.585-19.091-11.834-13.278C162.177,181.138,131.421,193.861,90.266,183.186Z" fill="#e6ac67" opacity="0.2" style="mix-blend-mode: screen;isolation: isolate"/>
      <g id="Grupo_24" data-name="Grupo 24">
        <g id="Grupo_11" data-name="Grupo 11">
          <g id="Grupo_10" data-name="Grupo 10">
            <path id="Caminho_10246" data-name="Caminho 10246" d="M90.721,173.852c-.756-1.7.846-3.043,2.307-3.467,1.772-.514,3.244.509,4.553,1.576,1.952,1.591,3.3,3.811,5.245,5.415,2.982,2.461,7.254,3.71,10.506,1.095a1.627,1.627,0,0,0,.349-2.221,3.455,3.455,0,0,1,.89-4.62c1.551-1.187,3.849-.882,5.491-.07,2.653,1.312,4.045,4.162,6.427,5.827,2.627,1.835,6.9,2.368,8.867-.694,1.06-1.645.881-3.509.792-5.374-.081-1.7-.059-3.713,2.016-4.072,1.641-.285,3.567.713,4.96,1.458,3.941,2.107,7.372,5.563,12.242,4.744,3.555-.6,6.6-3.587,6.181-7.332-.124-1.125-.676-2.107-.881-3.2-.667-3.549,1.275-2.018,2.864-.875a21.466,21.466,0,0,0,5.91,3.4c3.266,1.032,7.594.218,9.312-3.068.921-1.76.554-3.6.127-5.448-1.139-4.917,3.49-4.19,6.589-3.041,4.228,1.568,9.617,2.986,11.971-2.174,1.371-3.006-.738-15.607,4.965-14.314a1.253,1.253,0,0,0,.727-2.364c-4.25-1.823-7.245,2.193-7.967,6.044-.413,2.2.053,4.463-.127,6.683a5.824,5.824,0,0,1-1.075,3.487c-1.954,2.082-5.028.518-7.147-.313-3.383-1.327-8.791-2.463-10.947,1.531-1,1.845-.444,3.724-.028,5.638,1.059,4.868-4.035,5.159-7.249,3.419-2.868-1.553-8.428-7.577-10.983-2.139-.966,2.055-.084,3.791.369,5.816,1.175,5.249-4.331,5.717-7.913,4.045-4.075-1.9-8.357-6.436-13.344-4.88a5.243,5.243,0,0,0-3.4,3.4c-.777,2.278,1.112,7.4-2.177,8.053-3.316.66-6.213-4.794-8.619-6.388a9.331,9.331,0,0,0-7.5-1.392,6.692,6.692,0,0,0-3.912,10.082l.349-2.221c-3.823,2.967-7.875-2.386-10.207-4.822-1.747-1.825-3.869-3.663-6.5-3.87-4.085-.32-8.541,3.705-5.991,7.713a1.131,1.131,0,0,0,1.961-1.07Z" fill="#b25c00"/>
          </g>
        </g>
        <g id="Grupo_12" data-name="Grupo 12">
          <path id="Caminho_10247" data-name="Caminho 10247" d="M89.186,172.65c-.756-1.7.846-3.043,2.307-3.467,1.772-.514,3.244.509,4.553,1.576,1.952,1.591,3.3,3.812,5.245,5.415,2.982,2.461,7.253,3.71,10.506,1.1a1.628,1.628,0,0,0,.349-2.221,3.455,3.455,0,0,1,.89-4.62c1.55-1.187,3.849-.881,5.491-.07,2.653,1.312,4.045,4.162,6.427,5.827,2.627,1.835,6.895,2.368,8.867-.694,1.06-1.645.881-3.509.792-5.374-.081-1.7-.06-3.713,2.016-4.072,1.641-.285,3.567.713,4.96,1.458,3.941,2.107,7.372,5.563,12.242,4.745,3.555-.6,6.6-3.588,6.181-7.333-.124-1.124-.676-2.107-.881-3.2-.667-3.549,1.275-2.018,2.864-.875a21.48,21.48,0,0,0,5.91,3.406c3.266,1.031,7.594.217,9.312-3.069.92-1.76.554-3.6.127-5.448-1.139-4.916,3.49-4.19,6.589-3.041,4.228,1.568,9.617,2.986,11.971-2.174,1.371-3.006-.738-15.607,4.965-14.314a1.252,1.252,0,0,0,.727-2.364c-4.25-1.823-7.245,2.194-7.967,6.044-.413,2.2.053,4.463-.127,6.683a5.824,5.824,0,0,1-1.075,3.487c-1.954,2.082-5.028.518-7.147-.313-3.383-1.327-8.791-2.463-10.947,1.531-1,1.845-.444,3.724-.028,5.638,1.059,4.869-4.035,5.159-7.249,3.419-2.868-1.552-8.428-7.577-10.983-2.139-.966,2.055-.084,3.792.369,5.816,1.175,5.249-4.331,5.717-7.913,4.045-4.075-1.9-8.357-6.436-13.344-4.879a5.237,5.237,0,0,0-3.4,3.4c-.777,2.279,1.112,7.4-2.177,8.053-3.316.66-6.213-4.794-8.619-6.388a9.335,9.335,0,0,0-7.5-1.392,6.691,6.691,0,0,0-3.912,10.082l.349-2.221c-3.823,2.967-7.875-2.386-10.207-4.822-1.747-1.825-3.869-3.663-6.5-3.87-4.085-.32-8.541,3.705-5.991,7.713a1.131,1.131,0,0,0,1.961-1.07Z" fill="#ffcc02"/>
        </g>
        <g id="Grupo_13" data-name="Grupo 13">
          <path id="Caminho_10248" data-name="Caminho 10248" d="M88.279,171.371c.042-3.635,4.841-4.746,7.253-2.86a39.254,39.254,0,0,1,3.3,3.5c1.548,1.572,3.708,4.3,6.124,4.249a.334.334,0,0,0,.235-.525c-1.409-2.014-3.975-3.483-5.7-5.272-1.456-1.506-2.89-3.78-5.047-4.345-2.968-.776-9.369,1.607-7.306,5.529a.6.6,0,0,0,1.144-.274Z" fill="#fff159"/>
        </g>
        <g id="Grupo_14" data-name="Grupo 14">
          <path id="Caminho_10249" data-name="Caminho 10249" d="M109.187,177.493c3.459-1.8,1.2-4.652,3.544-7.225,3.975-4.371,8.526,2.5,12.08,4.037a.365.365,0,0,0,.443-.543c-2.1-3.449-6.488-6.482-10.635-6.241-1.552.091-2.978.39-3.847,1.772-1.331,2.118.2,5.608-2.225,7.027-.651.382-.039,1.527.64,1.173Z" fill="#fff159"/>
        </g>
        <g id="Grupo_15" data-name="Grupo 15">
          <path id="Caminho_10250" data-name="Caminho 10250" d="M135.12,165.621c2-.995,5.5-.039,7.47.88,1.446.673,2.243,2.367,3.823,2.675.175.035.35-.2.216-.348a12.762,12.762,0,0,0-5.721-4.1c-1.9-.644-4.823-1.687-6.348.125-.3.357.107,1,.56.771Z" fill="#fff159"/>
        </g>
        <g id="Grupo_16" data-name="Grupo 16">
          <path id="Caminho_10251" data-name="Caminho 10251" d="M150.057,170.649a.483.483,0,0,0-.1-.961.483.483,0,0,0,.1.961Z" fill="#fff159"/>
        </g>
        <g id="Grupo_17" data-name="Grupo 17">
          <path id="Caminho_10252" data-name="Caminho 10252" d="M152.045,171.117a.735.735,0,0,0-.148-1.461.735.735,0,0,0,.148,1.461Z" fill="#fff159"/>
        </g>
        <g id="Grupo_18" data-name="Grupo 18">
          <path id="Caminho_10253" data-name="Caminho 10253" d="M154.743,170.385a.554.554,0,0,0-.111-1.1.554.554,0,0,0,.111,1.1Z" fill="#fff159"/>
        </g>
        <g id="Grupo_19" data-name="Grupo 19">
          <path id="Caminho_10254" data-name="Caminho 10254" d="M157.6,166.488a7.533,7.533,0,0,0,.284-3.389,7.528,7.528,0,0,1-.024-1.989,4.9,4.9,0,0,0,.268-1.546.387.387,0,0,0-.518-.318c-2.359.777-.27,5.459-.563,7.072-.057.317.44.488.553.17Z" fill="#fff159"/>
        </g>
        <g id="Grupo_20" data-name="Grupo 20">
          <path id="Caminho_10255" data-name="Caminho 10255" d="M176.511,149.364c-3.651,2.973-2.528,8.039-1.111,11.959a.314.314,0,0,0,.6-.061c.8-4-2.471-7.711,1.158-11.217.385-.371-.231-1.017-.645-.681Z" fill="#fff159"/>
        </g>
        <g id="Grupo_21" data-name="Grupo 21">
          <path id="Caminho_10256" data-name="Caminho 10256" d="M173.241,164.143a.614.614,0,0,0-.124-1.221.614.614,0,0,0,.124,1.221Z" fill="#fff159"/>
        </g>
        <g id="Grupo_22" data-name="Grupo 22">
          <path id="Caminho_10257" data-name="Caminho 10257" d="M194.414,150.259c1.036-1.775,2.138-4.487,1.5-6.562a.3.3,0,0,0-.556-.017c-.291.928-.255,1.937-.487,2.892a15.9,15.9,0,0,1-1.222,3.336c-.248.495.5.811.769.351Z" fill="#fff159"/>
        </g>
        <g id="Grupo_23" data-name="Grupo 23">
          <path id="Caminho_10258" data-name="Caminho 10258" d="M195.749,142.125a8.924,8.924,0,0,1-.029-2.191A13.671,13.671,0,0,0,196,138.2a.192.192,0,0,0-.338-.1c-.752,1.055-.667,2.852-.531,4.088a.312.312,0,0,0,.62-.063Z" fill="#fff159"/>
        </g>
      </g>
    </g>
    <path id="Caminho_10434" data-name="Caminho 10434" d="M179.995,60q-7.531,8.928-15.839,17.16" transform="translate(480.755 60)" fill="none" stroke="#fff" stroke-linecap="round" stroke-linejoin="round" stroke-width="1"/>
    <path id="Caminho_10435" data-name="Caminho 10435" d="M192.434,86.592A216.307,216.307,0,0,1,171,91.307" transform="translate(477 50.203)" fill="none" stroke="#fff" stroke-linecap="round" stroke-linejoin="round" stroke-width="1"/>
    <path id="Caminho_10436" data-name="Caminho 10436" d="M192,107.96a89.791,89.791,0,0,1-20.563-1.283" transform="translate(477 44.097)" fill="none" stroke="#fff" stroke-linecap="round" stroke-linejoin="round" stroke-width="1"/>
    <path id="Caminho_10437" data-name="Caminho 10437" d="M179.144,124.273a38.183,38.183,0,0,1-8.151-1.678" transform="translate(478.444 38.727)" fill="none" stroke="#fff" stroke-linecap="round" stroke-linejoin="round" stroke-width="1"/>
    <path id="Caminho_10438" data-name="Caminho 10438" d="M155.543,52.7l-4.693,11.58" transform="translate(488.633 69)" fill="none" stroke="#fff" stroke-linecap="round" stroke-linejoin="round" stroke-width="1"/>
    <text id="Cachorro_quente_do_R" data-name="Cachorro quente do R" transform="translate(120 181)" fill="#fff" font-size="50" font-family="RifficFree-Bold, Riffic Free" font-weight="700"><tspan x="0" y="0">Cachorro quente do R</tspan></text>
  </g>
</svg>
