<svg xmlns="http://www.w3.org/2000/svg" width="40" height="40" viewBox="0 0 40 40">
  <path id="Caminho_5" data-name="Caminho 5" d="M376.942,78.244l7.234,6.467A2.735,2.735,0,0,1,385,87.353l-2.214,9.673a2.576,2.576,0,0,0,3.809,2.891l8.123-5.188a2.455,2.455,0,0,1,2.66,0l8.123,5.188a2.576,2.576,0,0,0,3.809-2.891l-2.214-9.673a2.735,2.735,0,0,1,.822-2.642l7.234-6.467a2.69,2.69,0,0,0-1.455-4.678l-9.491-.79a2.562,2.562,0,0,1-2.152-1.633L398.4,61.958a2.509,2.509,0,0,0-4.709,0l-3.652,9.185a2.562,2.562,0,0,1-2.152,1.633l-9.491.79A2.69,2.69,0,0,0,376.942,78.244Z" transform="translate(-376.046 -60.317)" fill="#d97236"/>
</svg>
